<?xml version="1.0" standalone="no"?>
<!DOCTYPE svg PUBLIC "-//W3C//DTD SVG 20010904//EN"
 "http://www.w3.org/TR/2001/REC-SVG-20010904/DTD/svg10.dtd">
<svg version="1.0" xmlns="http://www.w3.org/2000/svg"
 width="1024.000000pt" height="1024.000000pt" viewBox="0 0 1024.000000 1024.000000"
 preserveAspectRatio="xMidYMid meet">

<g transform="translate(0.000000,1024.000000) scale(0.100000,-0.100000)"
fill="#000000" stroke="none">
<path d="M5042 8989 c-163 -25 -307 -94 -412 -198 -105 -104 -175 -244 -187
-373 l-6 -57 -256 -3 -256 -3 -62 -34 c-71 -38 -120 -95 -154 -177 l-23 -54
-346 0 c-373 0 -405 -3 -516 -56 -68 -32 -160 -116 -210 -191 -20 -31 -49 -90
-63 -132 l-26 -76 0 -2730 c0 -2622 1 -2732 18 -2790 52 -167 179 -324 318
-389 41 -20 99 -40 129 -46 37 -7 767 -9 2185 -8 l2130 3 69 27 c133 51 243
152 315 287 69 131 64 -111 65 2911 1 2614 0 2728 -17 2790 -45 157 -146 279
-294 352 l-86 43 -378 3 -378 3 -30 64 c-33 72 -98 142 -163 177 -41 22 -55
23 -298 28 l-255 5 -7 47 c-37 261 -252 493 -521 562 -77 20 -208 27 -285 15z
m215 -267 c74 -23 134 -61 198 -126 59 -59 89 -119 112 -218 13 -60 14 -82 4
-136 -16 -88 -62 -179 -116 -232 -25 -24 -45 -48 -45 -52 0 -4 61 -8 135 -8
101 0 135 3 136 13 1 6 0 40 -1 75 l-2 62 277 0 c306 0 316 -2 354 -63 12 -19
21 -39 21 -45 0 -7 -27 -12 -67 -14 l-68 -3 -5 -102 c-5 -109 -20 -144 -71
-170 -33 -17 -1929 -19 -1962 -2 -12 6 -31 22 -42 35 l-21 24 -52 -50 c-29
-27 -58 -50 -66 -50 -20 0 -26 46 -26 202 0 156 8 183 63 217 33 20 47 21 372
21 l337 0 -6 23 c-36 130 -27 257 26 367 92 189 321 292 515 232z m-1571
-1088 c3 -67 23 -133 73 -235 65 -133 179 -224 310 -249 34 -6 431 -10 1091
-10 1126 0 1080 -2 1183 55 80 45 132 100 176 185 50 95 67 150 77 243 l6 68
267 -3 c256 -3 268 -4 313 -26 75 -38 134 -96 170 -170 32 -65 33 -70 36 -219
l4 -153 -96 0 -97 0 3 -122 3 -123 40 0 c40 0 40 0 43 43 3 40 4 42 37 42 18
0 36 6 38 13 3 6 3 -6 0 -27 -5 -28 -3 -37 5 -32 15 9 17 -461 2 -484 -7 -10
-10 7 -10 57 0 39 -5 75 -10 78 -6 3 -42 3 -80 -1 l-70 -7 0 -340 c0 -187 2
-338 5 -335 3 3 6 67 6 142 0 75 4 136 9 136 11 0 18 -153 7 -161 -12 -9 3
-119 16 -119 6 0 8 22 4 60 l-7 60 40 0 c40 0 40 0 40 -40 0 -29 4 -40 15 -40
8 0 16 -10 17 -22 1 -13 5 24 8 82 5 78 6 50 6 -107 -1 -116 2 -209 7 -206 4
2 6 -74 5 -169 -1 -119 -3 -154 -8 -113 l-7 60 -3 -70 c-2 -38 -3 -79 -2 -90
1 -11 -1 -53 -4 -92 -4 -54 -9 -73 -20 -73 -8 0 -14 -9 -14 -20 0 -13 -7 -20
-20 -20 -18 0 -20 7 -20 60 0 57 -1 60 -25 60 -30 0 -29 9 -25 -227 1 -112 -1
-163 -9 -163 -7 0 -12 69 -14 213 -1 116 -4 -407 -6 -1163 -2 -756 -4 -1400
-6 -1431 -5 -103 -70 -194 -162 -229 -53 -20 -79 -20 -1896 -20 l-1842 0 -50
24 c-58 27 -98 70 -131 141 l-24 50 0 592 0 591 -41 7 c-22 4 -59 4 -82 1 -23
-3 -48 -2 -55 2 -10 7 -12 390 -10 1923 l3 1914 26 55 c31 67 79 123 132 157
79 50 95 52 367 50 l255 -2 1 -51z m3691 -546 c-3 -8 -6 -5 -6 6 -1 11 2 17 5
13 3 -3 4 -12 1 -19z m-20 -35 c-3 -10 -5 -4 -5 12 0 17 2 24 5 18 2 -7 2 -21
0 -30z m-127 -713 c0 -11 -4 -20 -10 -20 -5 0 -10 9 -10 20 0 11 5 20 10 20 6
0 10 -9 10 -20z"/>
<path d="M5054 8527 c-98 -47 -159 -165 -134 -258 19 -70 65 -128 124 -155
110 -51 230 -18 291 80 26 44 30 58 30 125 0 68 -3 81 -30 121 -66 97 -184
133 -281 87z"/>
<path d="M3522 7089 c-60 -14 -136 -88 -152 -149 -16 -61 -8 -120 24 -175 87
-148 311 -143 382 8 83 180 -62 360 -254 316z"/>
<path d="M6665 7095 c-5 -2 -22 -6 -37 -9 -37 -8 -95 -61 -119 -108 -70 -137
4 -289 155 -317 97 -18 183 23 230 109 54 99 34 209 -50 278 -47 39 -135 62
-179 47z"/>
<path d="M4970 6979 c-423 -54 -773 -229 -1066 -530 -260 -269 -415 -574 -472
-929 -20 -130 -22 -422 -3 -530 35 -204 83 -348 173 -523 281 -546 804 -896
1432 -958 93 -9 138 -8 255 6 606 69 1111 405 1390 925 81 152 159 390 188
575 21 142 13 421 -17 565 -72 342 -219 623 -450 863 -170 177 -313 282 -510
376 -288 138 -631 197 -920 160z m407 -334 c126 -20 380 -105 315 -105 -8 0
-11 -10 -7 -29 4 -25 2 -28 -18 -24 -17 3 -28 -2 -41 -21 -9 -15 -15 -30 -12
-34 2 -4 -4 -9 -15 -9 -10 -1 -19 2 -19 8 0 5 5 9 10 9 6 0 10 7 10 15 0 8 -6
15 -14 15 -8 0 -18 9 -21 20 -4 11 -15 20 -27 20 -17 0 -20 -5 -16 -33 3 -33
3 -33 -24 -23 -15 5 -25 14 -22 18 3 4 -2 8 -10 8 -22 0 -20 -19 2 -26 9 -3
38 -14 64 -25 26 -10 62 -19 80 -19 25 0 29 -3 18 -10 -13 -8 -12 -10 3 -10 9
0 19 1 21 3 2 1 14 -7 27 -18 l24 -20 -20 24 -20 24 20 -6 c11 -4 27 -2 35 4
12 8 11 9 -5 7 -16 -2 -21 3 -23 30 -3 30 -1 32 28 32 17 0 38 7 46 15 18 17
34 20 34 5 0 -5 7 -10 15 -10 31 0 77 -31 183 -120 13 -11 20 -25 16 -31 -4
-8 -3 -9 5 -5 6 4 8 13 5 19 -4 7 10 -4 32 -23 21 -19 41 -36 44 -38 2 -2 -2
-8 -10 -13 -13 -9 -12 -10 2 -5 10 3 24 -2 33 -10 13 -13 13 -19 3 -33 -11
-14 -11 -14 3 -3 14 11 24 3 74 -55 l58 -68 -999 -3 c-896 -2 -1000 -1 -1010
13 -9 12 -13 13 -16 3 -3 -9 -34 -14 -108 -16 -118 -4 -116 -12 -17 90 32 33
65 71 74 84 8 13 23 23 32 22 9 -2 15 3 13 10 -1 7 9 17 22 22 14 5 33 21 42
35 9 14 31 35 48 47 22 16 27 17 17 5 -9 -12 -10 -17 -2 -17 7 0 9 -5 6 -10
-3 -6 1 -13 9 -16 27 -10 20 -44 -9 -44 -14 0 -25 -5 -25 -11 0 -14 -25 -39
-39 -39 -6 0 -11 -7 -11 -15 0 -8 6 -15 14 -15 8 0 17 -11 20 -25 4 -14 12
-25 20 -25 18 0 38 25 28 35 -4 5 -2 5 4 2 14 -8 110 60 106 74 -1 6 2 8 7 4
16 -9 61 24 54 41 -3 8 0 14 6 14 6 0 11 -4 11 -10 0 -5 7 -7 15 -4 8 4 13 10
10 14 -8 13 17 25 47 21 60 -6 33 43 -30 54 -28 4 -42 3 -42 -4 0 -6 -5 -11
-11 -11 -31 0 -54 -63 -26 -73 6 -2 9 -7 6 -11 -3 -3 -14 2 -25 12 -12 10 -35
17 -62 17 -40 0 -43 2 -39 23 3 14 -1 22 -9 22 -22 0 -16 16 10 34 18 12 26
12 29 3 3 -7 6 -5 6 5 1 9 11 20 24 23 12 4 31 15 42 25 32 28 133 72 146 64
8 -5 9 -3 4 6 -6 10 -3 12 13 8 12 -4 20 -3 17 1 -7 12 167 59 275 75 70 10
334 4 417 -9z m357 -126 c-2 -4 2 -10 8 -13 7 -3 2 -4 -11 -3 -14 1 -26 7 -28
14 -3 7 4 11 16 10 11 0 18 -4 15 -8z m536 -786 c0 -142 -53 -267 -135 -318
l-48 -30 -361 -3 -361 -3 3 -764 c4 -864 12 -775 -88 -895 -33 -40 -75 -92
-92 -117 -18 -24 -38 -42 -45 -41 -7 2 -60 66 -118 143 l-105 139 0 773 0 773
-365 0 c-345 0 -368 1 -405 20 -78 40 -124 135 -136 283 l-7 87 1132 0 1131 0
0 -47z m-2456 -243 c25 -33 46 -62 46 -64 0 -3 35 -40 78 -83 42 -43 112 -117
155 -165 58 -66 87 -90 115 -98 20 -5 117 -10 215 -10 l177 0 0 -555 0 -555
-60 30 c-162 82 -294 180 -432 323 -78 80 -110 122 -76 101 7 -4 8 -3 4 4 -4
7 -14 12 -22 12 -8 0 -14 4 -14 8 0 5 -11 22 -26 38 -14 16 -30 38 -36 49 -10
17 -9 18 4 8 12 -10 15 -10 15 2 0 8 -3 12 -7 10 -11 -7 -26 9 -54 57 -16 27
-24 53 -20 60 4 7 4 10 -1 6 -11 -10 -44 52 -39 75 1 10 -1 15 -6 12 -13 -8
-40 83 -33 116 4 21 1 30 -10 35 -15 5 -26 38 -33 91 -1 12 -5 27 -10 34 -5 8
-3 9 6 4 10 -6 11 -3 5 16 -4 13 -7 38 -6 54 0 23 -2 26 -9 15 -7 -11 -10 -3
-10 28 0 27 5 42 13 43 10 0 10 2 0 6 -26 10 -8 307 19 324 6 4 7 12 4 18 -4
6 -5 11 -2 11 2 0 25 -27 50 -60z m2725 16 c1 -6 -6 -1 -15 10 -14 17 -15 17
-10 1 3 -10 2 -16 -3 -13 -5 3 -11 0 -14 -7 -4 -10 2 -13 19 -9 14 2 24 0 24
-7 0 -6 -4 -11 -10 -11 -5 0 -10 -7 -10 -16 0 -9 -5 -12 -12 -8 -7 4 -8 3 -4
-5 4 -6 12 -9 17 -6 5 4 9 0 10 -7 0 -7 4 -4 9 7 7 16 9 13 9 -16 1 -33 -2
-37 -29 -41 -24 -4 -27 -2 -19 9 9 10 8 13 -1 13 -8 0 -10 3 -7 7 4 3 0 15
-10 25 -11 13 -12 18 -3 18 10 0 10 3 0 15 -9 11 -6 21 16 51 25 32 29 34 35
18 4 -11 8 -23 8 -28z m-82 -58 c-3 -8 -6 -5 -6 6 -1 11 2 17 5 13 3 -3 4 -12
1 -19z m66 -95 c17 -3 27 -12 27 -23 0 -10 3 -25 6 -34 4 -11 0 -16 -11 -16
-15 0 -17 -7 -11 -46 3 -26 7 -56 8 -68 1 -12 5 4 9 34 5 39 6 26 3 -45 -4
-111 -14 -182 -23 -167 -3 6 -6 -10 -7 -34 -1 -54 -19 -80 -43 -62 -14 11 -14
11 -4 -3 7 -9 9 -20 5 -25 -4 -4 2 -2 12 6 18 14 18 13 11 -10 -4 -14 -10 -27
-14 -30 -3 -3 -7 -17 -9 -32 -3 -34 -27 -80 -36 -71 -4 4 -4 0 -1 -8 7 -19
-65 -162 -128 -253 -50 -73 -208 -239 -293 -306 -69 -56 -257 -172 -303 -188
l-31 -11 0 554 0 553 193 4 c191 3 194 3 235 30 23 15 91 86 152 156 87 101
115 128 133 126 12 -1 25 -3 30 -3 4 -1 7 -8 7 -16 0 -8 5 -15 10 -15 6 0 4
13 -5 30 -22 43 -19 45 18 10 17 -17 44 -33 60 -37z m-2736 -475 c-3 -8 -6 -5
-6 6 -1 11 2 17 5 13 3 -3 4 -12 1 -19z"/>
<path d="M5034 6590 c-52 -8 -88 -23 -112 -47 -7 -7 -20 -13 -27 -13 -7 0 -15
-10 -17 -22 -2 -13 -10 -23 -18 -24 -19 -1 -72 -15 -84 -22 -22 -13 32 -18 64
-7 19 8 53 17 75 21 22 4 47 9 55 11 51 11 272 14 317 5 59 -13 113 -6 113 14
0 8 -4 14 -10 14 -5 0 -10 7 -10 16 0 14 -8 16 -50 10 -32 -4 -50 -3 -50 4 0
5 -18 10 -40 10 -33 0 -40 3 -40 20 0 18 -6 20 -57 19 -32 -1 -81 -5 -109 -9z"/>
<path d="M5600 6540 c0 -11 2 -20 4 -20 2 0 6 9 9 20 3 11 1 20 -4 20 -5 0 -9
-9 -9 -20z"/>
<path d="M4739 6480 c-9 -5 -20 -21 -23 -35 -7 -28 -26 -34 -26 -7 0 14 -2 15
-10 2 -6 -10 -6 -16 0 -18 6 -2 8 -8 4 -13 -7 -13 -2 -11 43 9 33 14 39 21 33
37 -4 11 -6 23 -3 28 5 9 2 9 -18 -3z"/>
<path d="M4778 6483 c7 -3 16 -2 19 1 4 3 -2 6 -13 5 -11 0 -14 -3 -6 -6z"/>
<path d="M5405 6470 c27 -12 35 -12 35 0 0 6 -12 10 -27 9 -25 0 -26 -1 -8 -9z"/>
<path d="M4458 6429 c-23 -13 -23 -29 0 -29 11 0 18 8 19 20 1 11 1 20 0 20
-1 0 -10 -5 -19 -11z"/>
<path d="M5896 6422 c-12 -20 11 -40 27 -23 8 9 8 12 0 7 -6 -3 -13 1 -15 11
-3 14 -5 15 -12 5z"/>
<path d="M5724 6379 c-7 -11 14 -21 28 -13 7 4 8 3 4 -5 -4 -7 -17 -9 -29 -6
-12 4 3 -8 33 -26 30 -17 64 -40 76 -50 11 -11 24 -16 27 -12 4 3 7 0 7 -8 0
-11 2 -11 10 1 9 13 10 13 11 0 1 -8 1 -19 0 -23 -1 -4 12 -13 29 -18 16 -6
28 -15 25 -19 -3 -5 -1 -11 5 -15 5 -3 10 3 10 14 0 12 -7 21 -15 21 -10 0
-12 6 -8 18 6 14 4 15 -8 5 -13 -11 -15 -9 -15 10 1 19 -4 22 -34 22 -29 1
-36 5 -38 24 -3 17 -9 22 -22 18 -11 -3 -19 -2 -18 2 0 3 0 18 -1 32 -1 23 -6
27 -37 31 -19 2 -37 1 -40 -3z"/>
<path d="M5900 6370 c0 -5 5 -10 10 -10 6 0 10 5 10 10 0 6 -4 10 -10 10 -5 0
-10 -4 -10 -10z"/>
<path d="M5960 6339 c0 -25 33 -22 38 4 2 12 -3 17 -17 17 -15 0 -21 -6 -21
-21z"/>
<path d="M6047 6297 c-3 -8 1 -14 9 -14 16 0 19 13 5 21 -5 3 -11 0 -14 -7z"/>
<path d="M5999 6146 c19 -20 36 -36 37 -36 1 0 0 9 -3 20 -3 11 -12 20 -19 20
-8 0 -14 4 -14 9 0 5 -8 12 -17 16 -10 3 -3 -10 16 -29z"/>
<path d="M4270 6120 c-9 -6 -10 -10 -3 -10 6 0 15 5 18 10 8 12 4 12 -15 0z"/>
<path d="M4097 6103 c18 -2 50 -2 70 0 21 2 7 4 -32 4 -38 0 -55 -2 -38 -4z"/>
<path d="M3744 5345 c-3 -8 -4 -20 -2 -27 3 -7 7 -1 10 15 6 29 1 36 -8 12z"/>
<path d="M3881 5300 c-2 -52 -5 -60 -12 -40 -6 19 -7 13 -3 -20 3 -29 2 -42
-5 -35 -5 6 -11 24 -14 40 -2 17 -4 -40 -4 -127 l0 -156 29 -6 c17 -3 35 -3
41 1 7 4 8 0 4 -11 -4 -10 -7 -26 -7 -37 0 -10 -6 -19 -13 -19 -8 0 -19 -11
-25 -25 -11 -23 -10 -25 13 -25 14 0 25 -6 25 -13 0 -8 10 -19 23 -25 17 -8
18 -11 5 -11 -25 -1 -23 -31 2 -31 11 0 20 -7 20 -15 0 -8 7 -15 17 -15 15 0
15 1 0 18 -22 24 -22 36 -1 28 13 -5 14 -3 7 6 -6 7 -14 24 -17 38 -6 19 -5
21 3 10 13 -19 14 0 1 20 -6 10 -10 11 -10 3 0 -7 -7 -13 -15 -13 -17 0 -20
21 -5 36 6 6 5 28 -4 64 -34 131 -40 172 -46 295 -5 90 -8 110 -9 65z m59
-411 c0 -4 -6 -9 -13 -12 -10 -4 -13 2 -9 20 3 18 7 21 13 11 5 -7 9 -16 9
-19z"/>
<path d="M4007 4725 c-4 -8 -2 -15 3 -15 6 0 10 -6 10 -14 0 -8 7 -17 16 -20
9 -3 14 -12 11 -19 -3 -8 1 -14 9 -14 10 0 7 13 -12 46 -15 25 -28 47 -29 49
-1 2 -5 -4 -8 -13z"/>
<path d="M3870 4699 c0 -5 5 -7 10 -4 6 3 10 8 10 11 0 2 -4 4 -10 4 -5 0 -10
-5 -10 -11z"/>
<path d="M4009 4662 c11 -8 11 -10 0 -15 -10 -4 -8 -6 4 -6 21 -1 18 21 -4 27
-12 3 -12 2 0 -6z"/>
<path d="M3912 4590 c7 -10 14 -18 15 -16 6 6 -9 36 -18 36 -5 0 -4 -9 3 -20z"/>
<path d="M4065 4390 c3 -5 8 -10 11 -10 2 0 4 5 4 10 0 6 -5 10 -11 10 -5 0
-7 -4 -4 -10z"/>
<path d="M6403 5250 c4 -18 7 -36 7 -40 0 -4 16 -10 35 -12 31 -4 35 -1 35 19
0 14 6 23 15 23 8 0 15 7 15 15 0 9 -9 15 -24 15 -13 0 -38 3 -56 7 -33 6 -33
6 -27 -27z"/>
<path d="M6520 5143 c0 -4 5 -15 10 -23 8 -13 10 -13 10 2 0 9 -4 20 -10 23
-5 3 -10 3 -10 -2z"/>
<path d="M6379 5049 c-8 -43 -13 -79 -12 -79 7 0 33 62 29 68 -3 5 -1 25 4 45
4 20 5 39 1 41 -4 3 -14 -31 -22 -75z"/>
<path d="M7363 6800 c0 -47 2 -66 4 -42 2 23 2 61 0 85 -2 23 -4 4 -4 -43z"/>
<path d="M7331 6680 c0 -8 4 -24 9 -35 5 -13 9 -14 9 -5 0 8 -4 24 -9 35 -5
13 -9 14 -9 5z"/>
<path d="M7357 6683 c-2 -5 0 -21 4 -38 7 -29 7 -29 8 8 1 35 -3 46 -12 30z"/>
<path d="M7202 5805 c0 -16 2 -22 5 -12 2 9 2 23 0 30 -3 6 -5 -1 -5 -18z"/>
<path d="M7230 5320 c0 -22 5 -40 10 -40 6 0 10 18 10 40 0 22 -4 40 -10 40
-5 0 -10 -18 -10 -40z"/>
<path d="M7203 5280 c0 -25 2 -35 4 -22 2 12 2 32 0 45 -2 12 -4 2 -4 -23z"/>
<path d="M3609 3231 c-18 -14 -24 -29 -24 -61 0 -32 6 -47 24 -61 22 -18 51
-19 706 -19 l684 0 20 26 c28 36 27 85 -2 112 l-23 22 -681 0 c-653 0 -682 -1
-704 -19z"/>
<path d="M5280 3228 c-27 -29 -27 -91 0 -118 20 -20 33 -20 703 -20 l684 0 21
23 c29 30 30 89 2 117 -20 20 -33 20 -705 20 l-684 0 -21 -22z"/>
<path d="M3625 2858 c-50 -29 -59 -81 -21 -125 l24 -28 682 0 682 0 24 28 c33
39 32 89 -2 116 -26 21 -34 21 -698 21 -486 -1 -677 -4 -691 -12z"/>
<path d="M5278 2840 c-25 -26 -29 -36 -24 -63 4 -18 15 -41 27 -52 19 -20 34
-20 682 -23 364 -1 672 0 685 3 64 16 86 105 36 144 -26 21 -34 21 -701 21
l-675 0 -30 -30z"/>
<path d="M3610 2500 c-31 -31 -27 -94 7 -126 l26 -24 673 2 672 3 26 24 c35
33 35 83 1 116 l-24 25 -681 0 c-667 0 -680 0 -700 -20z"/>
<path d="M5282 2497 c-28 -29 -29 -86 -3 -118 l19 -24 687 0 687 0 19 24 c27
33 25 94 -3 121 -21 20 -31 20 -703 20 l-682 0 -21 -23z"/>
</g>
</svg>
